<svg style="height: 512px; width: 512px;" xmlns="http://www.w3.org/2000/svg" viewBox="0 0 512 512"><defs><clipPath id="icon-bg"><path d="M0 0h512v512H0z" fill="url(#pattern)" fill-opacity="0.94" transform="translate(-25.6, -25.6) scale(1.1, 1.1) rotate(0, 256, 256) skewX(0) skewY(0)"></path></clipPath><filter id="shadow-1" height="300%" width="300%" x="-100%" y="-100%"><feFlood flood-color="rgba(19, 19, 19, 1)" result="flood"></feFlood><feComposite in="flood" in2="SourceGraphic" operator="atop" result="composite"></feComposite><feGaussianBlur in="composite" stdDeviation="15" result="blur"></feGaussianBlur><feOffset dx="0" dy="0" result="offset"></feOffset><feComposite in="SourceGraphic" in2="offset" operator="over"></feComposite></filter></defs><path d="M0 0h512v512H0z" fill="url(#pattern)" fill-opacity="0.94"></path><g class="" style="" transform="translate(0,0)"><path d="M183.8 25l-13.4 94h171.2l-13.4-94H183.8zm-79.5 112L73.82 487H438.2l-30.5-350H104.3zm30.7 62h242v48h32v114h-32v48H135V199zm18 18v174h206v-30h-16V247h16v-30H153zm30 16h146v112H183V233zm74.2 10.7c-6.5 22-24.5 43.6-13.6 66.1-17.8-9.5-20.2-25.1-23.4-40.6-2.2 15.5-9.3 30.8-6.8 45.4-6.3-4.6-11.6-10.9-18.2-18 7 28.2 7.9 35.8 31.8 37.4h51.5c32.1-3.6 26.8-21.3 41-38.2-12.7.4-18.9 4.5-25.8 12.3 10.3-18.7-1.5-18.9-2.7-34.3-5.1 9.8-16.9 20.7-23.3 18.6-8.5-2.6-9.3-30.7-10.5-48.7zM361 265v78h30v-78h-30zM183 432h18v32h-18v-32zm64 0h18v32h-18v-32zm64 0h18v32h-18v-32z" fill="#f37e0a" fill-opacity="1" clip-path="url(#icon-bg)" transform="translate(25.6, 25.6) scale(0.9, 0.9) rotate(0, 256, 256) skewX(0) skewY(0)" stroke="#131313" stroke-opacity="1" stroke-width="4" filter="url(#shadow-1)"></path></g></svg>